<svg width="31" height="31" viewBox="0 0 31 31" fill="none" xmlns="http://www.w3.org/2000/svg">
<path d="M27.4795 12.7891H26.4729V12.7373H15.2251V17.7363H22.2881C21.2576 20.6463 18.4888 22.7353 15.2251 22.7353C11.084 22.7353 7.72655 19.3778 7.72655 15.2368C7.72655 11.0957 11.084 7.73827 15.2251 7.73827C17.1366 7.73827 18.8756 8.45938 20.1997 9.63727L23.7346 6.10234C21.5026 4.02213 18.5169 2.73926 15.2251 2.73926C8.32331 2.73926 2.72754 8.33503 2.72754 15.2368C2.72754 22.1386 8.32331 27.7343 15.2251 27.7343C22.1268 27.7343 27.7226 22.1386 27.7226 15.2368C27.7226 14.3988 27.6364 13.5809 27.4795 12.7891Z" fill="#FFC107"/>
<path d="M4.16846 9.41981L8.27452 12.4311C9.38555 9.68039 12.0763 7.73827 15.225 7.73827C17.1365 7.73827 18.8756 8.45938 20.1997 9.63727L23.7346 6.10234C21.5025 4.02213 18.5169 2.73926 15.225 2.73926C10.4247 2.73926 6.26179 5.44935 4.16846 9.41981Z" fill="#FF3D00"/>
<path d="M15.2246 27.7348C18.4527 27.7348 21.3858 26.4994 23.6035 24.4904L19.7355 21.2173C18.4386 22.2036 16.8539 22.7371 15.2246 22.7358C11.974 22.7358 9.21387 20.6631 8.17408 17.7705L4.09863 20.9105C6.16697 24.9578 10.3674 27.7348 15.2246 27.7348Z" fill="#4CAF50"/>
<path d="M27.4796 12.7892H26.4729V12.7373H15.2251V17.7363H22.2881C21.7952 19.1213 20.9073 20.3315 19.7342 21.2175L19.7361 21.2163L23.6041 24.4894C23.3304 24.7381 27.7226 21.4856 27.7226 15.2368C27.7226 14.3989 27.6364 13.5809 27.4796 12.7892Z" fill="#1976D2"/>
</svg>
